<svg xmlns="http://www.w3.org/2000/svg" width="512" height="758" viewBox="0 0 512 758" version="1.1"><path d="M 264.232 54 C 263.545 55.100, 262.418 56, 261.728 56 C 261.038 56, 254.185 62.300, 246.500 70 C 238.815 77.700, 231.733 84, 230.763 84 C 229.667 84, 229 84.756, 229 86 C 229 87.100, 228.430 88, 227.733 88 C 226.223 88, 205 109.072, 205 110.572 C 205 111.143, 199.825 116.716, 193.500 122.957 C 187.175 129.197, 182 134.816, 182 135.443 C 182 136.070, 179.975 138.571, 177.500 141 C 175.025 143.429, 173 145.943, 173 146.588 C 173 147.232, 170.750 149.806, 168 152.309 C 165.250 154.812, 162.990 157.453, 162.977 158.180 C 162.965 158.906, 161.182 161.033, 159.015 162.907 C 156.849 164.781, 155.325 166.717, 155.630 167.210 C 155.934 167.703, 155.242 168.923, 154.092 169.920 C 152.941 170.918, 151.996 172.357, 151.991 173.117 C 151.986 173.878, 150.636 175.563, 148.991 176.863 C 147.346 178.162, 146 179.780, 146 180.458 C 146 181.135, 145.100 182.505, 144 183.500 C 142.900 184.495, 142 185.845, 142 186.500 C 142 187.155, 141.130 188.477, 140.067 189.439 C 139.005 190.401, 138.378 191.821, 138.674 192.594 C 138.971 193.367, 138.716 194, 138.107 194 C 137.498 194, 137 194.704, 137 195.565 C 137 196.425, 135.650 198.265, 134 199.653 C 132.350 201.042, 131 202.813, 131 203.589 C 131 204.365, 130.550 205, 130 205 C 129.450 205, 129 205.900, 129 207 C 129 208.100, 128.550 209, 128 209 C 127.450 209, 127 209.735, 127 210.633 C 127 211.531, 126.059 213.082, 124.908 214.080 C 123.758 215.077, 123.080 216.321, 123.402 216.842 C 123.725 217.364, 123.324 218.046, 122.511 218.357 C 121.672 218.679, 121.289 219.589, 121.624 220.462 C 121.948 221.308, 121.716 222, 121.107 222 C 120.498 222, 120 222.862, 120 223.917 C 120 224.971, 119.661 225.983, 119.246 226.167 C 118.831 226.350, 116.920 229.650, 115 233.500 C 113.080 237.350, 111.169 240.650, 110.754 240.833 C 110.339 241.017, 110 242.029, 110 243.083 C 110 244.137, 109.501 245, 108.892 245 C 108.221 245, 108.021 245.947, 108.384 247.396 C 108.795 249.030, 108.503 249.977, 107.468 250.374 C 106.436 250.770, 106.142 251.718, 106.550 253.343 C 106.955 254.957, 106.664 255.915, 105.652 256.303 C 104.684 256.675, 104.355 257.642, 104.721 259.041 C 105.032 260.231, 104.885 261.496, 104.393 261.852 C 102.864 262.961, 101 266.879, 101 268.986 C 101 270.094, 100.550 271, 100 271 C 99.450 271, 99 272.800, 99 275 C 99 277.200, 98.550 279, 98 279 C 97.450 279, 97 280.098, 97 281.441 C 97 282.784, 96.550 284.160, 96 284.500 C 95.450 284.840, 95 286.666, 95 288.559 C 95 290.452, 94.550 292, 94 292 C 93.450 292, 93 293.998, 93 296.441 C 93 298.884, 92.519 301.179, 91.931 301.542 C 91.342 301.907, 90.981 304.433, 91.126 307.172 C 91.296 310.369, 90.936 312.422, 90.116 312.928 C 89.275 313.448, 88.930 315.611, 89.100 319.290 C 89.242 322.355, 88.893 325.457, 88.324 326.182 C 87.034 327.825, 87.140 367.882, 88.439 369.936 C 88.939 370.725, 89.239 373.717, 89.106 376.585 C 88.972 379.470, 89.341 382.093, 89.932 382.458 C 90.519 382.821, 91 385.090, 91 387.500 C 91 389.910, 91.450 392.160, 92 392.500 C 92.550 392.840, 93 394.666, 93 396.559 C 93 398.452, 93.450 400, 94 400 C 94.550 400, 95 401.548, 95 403.441 C 95 405.334, 95.450 407.160, 96 407.500 C 96.550 407.840, 97 409.666, 97 411.559 C 97 413.452, 97.450 415, 98 415 C 98.550 415, 99 416.350, 99 418 C 99 419.650, 99.338 421.004, 99.750 421.008 C 100.651 421.017, 103 425.863, 103 427.713 C 103 429.217, 105.083 433.196, 106.357 434.125 C 106.828 434.469, 106.910 435.709, 106.538 436.880 C 106.080 438.324, 106.347 439.196, 107.368 439.588 C 108.196 439.905, 108.629 440.803, 108.330 441.583 C 108.031 442.362, 108.284 443, 108.893 443 C 109.502 443, 110 444.242, 110 445.759 C 110 447.436, 110.785 449.009, 112 449.768 C 113.100 450.455, 114 451.876, 114 452.925 C 114 453.975, 114.354 454.983, 114.787 455.167 C 115.219 455.350, 116.793 458.016, 118.283 461.091 C 119.773 464.167, 121.894 467.499, 122.996 468.496 C 124.098 469.494, 125 470.831, 125 471.468 C 125 472.105, 126.350 473.919, 128 475.500 C 129.650 477.081, 131 478.914, 131 479.575 C 131 480.235, 132.346 481.838, 133.991 483.137 C 135.636 484.437, 136.986 486.220, 136.991 487.101 C 136.996 487.981, 139.475 490.968, 142.500 493.739 C 145.525 496.509, 148 499.342, 148 500.034 C 148 501.687, 167.519 520.998, 169.201 521.008 C 169.916 521.012, 176.961 527.762, 184.858 536.008 C 192.754 544.254, 199.786 551, 200.484 551 C 202.146 551, 243.140 591.964, 242.506 592.990 C 242.239 593.423, 244.265 595.820, 247.010 598.318 C 249.754 600.816, 252 603.467, 252 604.209 C 252 604.951, 252.900 606.207, 254 607 C 255.936 608.395, 256 609.589, 256 644.234 C 256 681.545, 256.004 681.581, 260.424 686.750 C 262.044 688.643, 263.351 689, 268.674 689 C 272.225 689, 275 688.561, 275 688 C 275 687.450, 275.948 687, 277.107 687 C 278.549 687, 279.036 686.536, 278.651 685.532 C 278.341 684.725, 278.518 683.798, 279.044 683.473 C 279.570 683.148, 280 681.784, 280 680.441 C 280 679.098, 280.450 678, 281 678 C 281.550 678, 282 676.200, 282 674 C 282 671.556, 281.533 670, 280.800 670 C 279.867 670, 279.867 669.733, 280.800 668.800 C 281.682 667.918, 282 659.346, 282 636.459 L 282 605.318 294.500 592.960 C 301.375 586.163, 307 580.017, 307 579.301 C 307 578.586, 307.538 578, 308.195 578 C 310.155 578, 314.892 572.882, 314.318 571.385 C 313.968 570.475, 314.509 570, 315.893 570 C 317.333 570, 318 569.367, 318 568 C 318 566.708, 318.667 566, 319.883 566 C 320.956 566, 322.003 565.096, 322.316 563.899 C 322.618 562.744, 323.269 562.048, 323.762 562.353 C 324.256 562.658, 333.292 554.234, 343.842 543.633 C 354.393 533.032, 363.260 524.593, 363.547 524.880 C 364.282 525.615, 390 499.794, 390 498.321 C 390 497.657, 392.475 494.772, 395.500 491.912 C 398.525 489.051, 401 486.071, 401 485.290 C 401 484.510, 402.350 482.735, 404 481.347 C 405.650 479.958, 407 478.271, 407 477.598 C 407 476.925, 408.350 475.081, 410 473.500 C 411.650 471.919, 413 470.105, 413 469.468 C 413 468.831, 413.882 467.512, 414.960 466.536 C 416.038 465.560, 416.850 464.478, 416.764 464.131 C 416.421 462.753, 421.186 453.866, 422.548 453.343 C 423.346 453.037, 424 451.972, 424 450.976 C 424 449.981, 424.338 449.017, 424.750 448.833 C 425.978 448.288, 430 439.961, 430 437.965 C 430 436.949, 430.468 435.829, 431.041 435.475 C 431.613 435.121, 431.820 434.007, 431.500 433 C 431.180 431.993, 431.387 430.879, 431.959 430.525 C 432.532 430.171, 433 429.098, 433 428.140 C 433 425.953, 435.248 421.018, 436.250 421.008 C 436.663 421.004, 437 419.650, 437 418 C 437 416.350, 437.450 415, 438 415 C 438.550 415, 439 413.452, 439 411.559 C 439 409.666, 439.450 407.840, 440 407.500 C 440.550 407.160, 441 405.334, 441 403.441 C 441 401.548, 441.450 400, 442 400 C 442.550 400, 443 398.002, 443 395.559 C 443 393.116, 443.450 390.840, 444 390.500 C 444.550 390.160, 445 387.884, 445 385.441 C 445 382.987, 445.473 381, 446.057 381 C 446.743 381, 447.048 377.418, 446.925 370.794 C 446.797 363.930, 447.106 360.465, 447.867 360.211 C 449.502 359.666, 449.443 332.314, 447.806 331.769 C 446.960 331.487, 446.692 328.399, 446.886 321.185 C 447.068 314.392, 446.800 311, 446.080 311 C 445.469 311, 445 309.071, 445 306.559 C 445 304.116, 444.550 301.840, 444 301.500 C 443.450 301.160, 443 298.884, 443 296.441 C 443 293.998, 442.550 292, 442 292 C 441.450 292, 441 290.452, 441 288.559 C 441 286.666, 440.550 284.840, 440 284.500 C 439.450 284.160, 439 282.334, 439 280.441 C 439 278.548, 438.550 277, 438 277 C 437.450 277, 437 275.650, 437 274 C 437 272.350, 436.550 271, 436 271 C 435.450 271, 435 270.094, 435 268.986 C 435 266.879, 433.136 262.961, 431.607 261.852 C 431.115 261.496, 430.968 260.231, 431.279 259.041 C 431.645 257.642, 431.316 256.675, 430.348 256.303 C 429.355 255.922, 429.046 254.954, 429.429 253.426 C 429.747 252.159, 429.556 250.843, 429.004 250.502 C 428.452 250.161, 428 248.784, 428 247.441 C 428 246.098, 427.550 245, 427 245 C 426.450 245, 426 243.650, 426 242 C 426 240.350, 425.634 239, 425.187 239 C 424.739 239, 423.751 237.415, 422.992 235.478 C 422.232 233.542, 420.798 231.222, 419.805 230.323 C 418.812 229.425, 418 227.661, 418 226.404 C 418 225.147, 417.543 223.835, 416.984 223.490 C 416.425 223.144, 416.189 222.503, 416.460 222.065 C 416.731 221.626, 416.063 220.462, 414.976 219.479 C 413.889 218.495, 413 217.085, 413 216.345 C 413 215.605, 412.550 215, 412 215 C 411.450 215, 411 214.199, 411 213.221 C 411 212.242, 410.100 210.793, 409 210 C 407.900 209.207, 407 207.758, 407 206.779 C 407 205.801, 406.634 205, 406.187 205 C 405.739 205, 404.737 203.379, 403.960 201.398 C 403.183 199.417, 401.351 196.790, 399.888 195.559 C 398.426 194.329, 396.928 191.947, 396.558 190.265 C 396.189 188.583, 395.012 186.416, 393.943 185.449 C 392.874 184.481, 392 183.089, 392 182.353 C 392 181.618, 391.100 180.455, 390 179.768 C 388.900 179.081, 388 177.767, 388 176.848 C 388 175.930, 386.650 174.042, 385 172.653 C 383.350 171.265, 382 169.448, 382 168.615 C 382 167.783, 380.425 165.900, 378.500 164.432 C 376.575 162.964, 374.996 161.029, 374.991 160.131 C 374.986 159.234, 373.636 157.437, 371.991 156.137 C 370.346 154.838, 369 153.137, 369 152.357 C 369 151.577, 367.425 149.556, 365.500 147.866 C 363.575 146.176, 362 144.174, 362 143.418 C 362 142.662, 358.416 138.609, 354.036 134.412 C 349.656 130.216, 346.169 126.408, 346.286 125.952 C 346.598 124.739, 288.816 67, 287.290 67 C 286.581 67, 286 66.052, 286 64.893 C 286 63.474, 285.532 62.966, 284.565 63.337 C 283.706 63.666, 281.703 62.306, 279.568 59.944 C 277.608 57.775, 275.329 56, 274.503 56 C 273.676 56, 273 55.550, 273 55 C 273 54.450, 272.100 54, 271 54 C 269.900 54, 269 53.550, 269 53 C 269 51.214, 265.516 51.945, 264.232 54 M 243.750 108.425 C 238.938 113.477, 235 118.057, 235 118.603 C 235 119.149, 229.037 125.499, 221.750 132.716 C 214.463 139.932, 208.500 146.435, 208.500 147.168 C 208.500 147.901, 207.713 148.438, 206.750 148.361 C 205.708 148.278, 205 148.918, 205 149.943 C 205 150.889, 201.923 154.552, 198.161 158.082 C 194.400 161.612, 191.490 164.995, 191.695 165.600 C 191.899 166.205, 190.252 168.292, 188.033 170.236 C 185.815 172.181, 184 174.308, 184 174.964 C 184 175.620, 182.200 177.886, 180 180 C 177.800 182.114, 176 184.250, 176 184.747 C 176 185.245, 174.875 186.708, 173.500 188 C 172.125 189.292, 171 191.062, 171 191.934 C 171 192.806, 170.100 194.081, 169 194.768 C 167.900 195.455, 167 196.618, 167 197.353 C 167 198.089, 166.100 199.505, 165 200.500 C 163.900 201.495, 163 202.845, 163 203.500 C 163 204.155, 162.111 205.495, 161.024 206.479 C 159.937 207.462, 159.251 208.597, 159.500 209 C 159.749 209.403, 159.063 210.538, 157.976 211.521 C 156.889 212.505, 156 213.845, 156 214.500 C 156 215.155, 155.100 216.505, 154 217.500 C 152.900 218.495, 152 219.911, 152 220.647 C 152 221.382, 151.100 222.545, 150 223.232 C 148.900 223.919, 148 225.273, 148 226.241 C 148 227.208, 147.550 228, 147 228 C 146.450 228, 146 228.900, 146 230 C 146 231.100, 145.550 232, 145 232 C 144.450 232, 144 232.863, 144 233.917 C 144 234.971, 143.450 236.017, 142.778 236.241 C 141.057 236.814, 146.002 242.874, 148.250 242.945 C 149.213 242.975, 150 243.450, 150 244 C 150 244.550, 150.787 245.004, 151.750 245.009 C 152.713 245.014, 154.563 246.364, 155.863 248.009 C 157.162 249.654, 158.794 251, 159.490 251 C 160.186 251, 161.315 251.675, 162 252.500 C 162.685 253.325, 163.866 254, 164.625 254 C 165.384 254, 167.631 255.800, 169.619 258 C 171.607 260.200, 173.771 262, 174.429 262 C 175.087 262, 176.919 263.350, 178.500 265 C 180.081 266.650, 181.868 268, 182.471 268 C 183.075 268, 186.013 270.475, 189 273.500 C 191.987 276.525, 195.010 279, 195.716 279 C 196.422 279, 197 279.601, 197 280.335 C 197 281.069, 203.075 287.685, 210.500 295.037 C 217.925 302.389, 224 308.900, 224 309.506 C 224 310.112, 225.575 312.134, 227.500 314 C 229.425 315.866, 231 317.909, 231 318.541 C 231 319.173, 231.900 320.505, 233 321.500 C 234.100 322.495, 235 323.875, 235 324.566 C 235 325.257, 236.379 326.983, 238.065 328.401 C 239.751 329.820, 240.886 331.375, 240.589 331.857 C 240.291 332.338, 240.937 333.538, 242.024 334.521 C 243.111 335.505, 244 336.865, 244 337.542 C 244 338.220, 245.346 339.838, 246.991 341.137 C 248.636 342.437, 249.986 344.083, 249.991 344.795 C 250.006 346.891, 254.928 351.353, 255.517 349.806 C 255.791 349.087, 255.899 292.481, 255.757 224.014 C 255.530 114.215, 255.323 99.510, 254 99.383 C 253.175 99.304, 248.563 103.373, 243.750 108.425 M 282.469 99.865 C 281.650 100.683, 281.965 275, 282.784 275 C 283.215 275, 286.013 272.525, 289 269.500 C 291.987 266.475, 294.921 264, 295.520 264 C 297.226 264, 303 257.595, 303 255.702 C 303 254.744, 303.769 254, 304.760 254 C 306.656 254, 343 218.223, 343 216.357 C 343 215.739, 343.945 214.986, 345.101 214.684 C 346.256 214.382, 346.907 213.658, 346.547 213.076 C 345.769 211.817, 350.314 207, 352.280 207 C 354.200 207, 358 202.734, 358 200.579 C 358 199.457, 358.522 198.986, 359.394 199.321 C 361.193 200.011, 365.325 195.619, 365.534 192.794 C 365.630 191.488, 364.552 189.653, 362.847 188.218 C 361.281 186.900, 360 185.238, 360 184.524 C 360 183.809, 358.654 182.162, 357.009 180.863 C 355.364 179.563, 354.014 177.886, 354.009 177.135 C 354.004 176.384, 352.313 174.222, 350.250 172.331 C 348.188 170.439, 346.494 168.285, 346.486 167.544 C 346.479 166.803, 343.891 163.716, 340.736 160.684 C 337.581 157.653, 335 154.676, 335 154.069 C 335 153.461, 332.075 150.213, 328.500 146.851 C 324.925 143.488, 322 139.896, 322 138.868 C 322 137.734, 321.291 137, 320.196 137 C 318.030 137, 312.492 131.400, 311.543 128.250 C 311.144 126.927, 310.069 126, 308.933 126 C 307.870 126, 307 125.386, 307 124.637 C 307 123.130, 283.218 99.115, 282.469 99.865 M 343.949 254.421 C 323.197 275.243, 305.720 291.997, 304.750 291.998 C 303.729 291.999, 303 292.754, 303 293.810 C 303 294.806, 298.275 300.270, 292.500 305.953 L 282 316.285 282 388.943 C 282 444.121, 281.711 461.889, 280.800 462.800 C 279.867 463.733, 280.041 464, 281.584 464 C 282.675 464, 286.013 461.525, 289 458.500 C 291.987 455.475, 295.010 453, 295.716 453 C 296.422 453, 297 452.100, 297 451 C 297 449.739, 297.667 449, 298.804 449 C 300.758 449, 306.325 443.600, 307.333 440.727 C 307.675 439.752, 308.752 438.680, 309.727 438.344 C 312.738 437.307, 341 408.669, 341 406.656 C 341 405.468, 341.508 404.981, 342.394 405.321 C 343.922 405.907, 348 402.120, 348 400.114 C 348 398.433, 350.516 396, 352.254 396 C 353.794 396, 358 391.922, 358 390.429 C 358 389.912, 371.950 375.543, 389 358.500 L 420 327.512 420 320.256 C 420 316.085, 419.575 313, 419 313 C 418.450 313, 418 310.552, 418 307.559 C 418 304.566, 417.550 301.840, 417 301.500 C 416.450 301.160, 416 299.360, 416 297.500 C 416 295.640, 415.505 293.812, 414.899 293.438 C 414.285 293.058, 414.045 291.524, 414.356 289.969 C 414.747 288.013, 414.458 287.006, 413.388 286.595 C 412.412 286.221, 412.082 285.317, 412.472 284.089 C 412.807 283.033, 412.613 281.879, 412.041 281.525 C 411.468 281.171, 411 279.810, 411 278.500 C 411 277.190, 410.550 275.840, 410 275.500 C 409.450 275.160, 409 273.810, 409 272.500 C 409 271.190, 408.550 269.840, 408 269.500 C 407.450 269.160, 407 267.784, 407 266.441 C 407 265.098, 406.550 264, 406 264 C 405.450 264, 405 263.100, 405 262 C 405 260.900, 404.550 260, 404 260 C 403.450 260, 403 258.650, 403 257 C 403 255.350, 402.502 254, 401.893 254 C 401.284 254, 401.031 253.362, 401.330 252.583 C 401.629 251.803, 401.235 250.920, 400.454 250.621 C 399.673 250.321, 399.277 249.442, 399.574 248.667 C 399.872 247.892, 399.422 246.992, 398.574 246.667 C 397.684 246.325, 397.283 245.427, 397.624 244.538 C 397.948 243.692, 397.828 242.998, 397.357 242.996 C 396.886 242.994, 395.375 240.521, 394 237.500 C 392.625 234.479, 391.163 232.006, 390.750 232.004 C 390.337 232.002, 390 231.104, 390 230.008 C 390 228.913, 389.100 227.455, 388 226.768 C 386.900 226.081, 386 224.775, 386 223.866 C 386 222.958, 385.314 221.951, 384.476 221.629 C 383.638 221.308, 382.602 220.100, 382.175 218.945 C 381.494 217.102, 376.814 221.446, 343.949 254.421 M 128.250 268.707 C 127.563 270.188, 127 272.182, 127 273.140 C 127 274.098, 126.511 275.184, 125.913 275.554 C 125.315 275.923, 125.044 277.058, 125.310 278.076 C 125.576 279.094, 125.242 280.384, 124.567 280.944 C 123.893 281.504, 123.532 283.267, 123.767 284.863 C 124.001 286.458, 123.699 288.068, 123.096 288.441 C 122.493 288.813, 122 290.216, 122 291.559 C 122 292.902, 121.550 294, 121 294 C 120.450 294, 120 295.998, 120 298.441 C 120 300.884, 119.550 303.160, 119 303.500 C 118.450 303.840, 118 306.116, 118 308.559 C 118 311.002, 117.550 313, 117 313 C 116.422 313, 116 316.167, 116 320.500 C 116 324.833, 115.578 328, 115 328 C 113.641 328, 113.641 368.660, 115 369.500 C 115.550 369.840, 116 373.016, 116 376.559 C 116 380.186, 116.437 383, 117 383 C 117.550 383, 118 384.998, 118 387.441 C 118 389.884, 118.450 392.160, 119 392.500 C 119.550 392.840, 120 394.666, 120 396.559 C 120 398.452, 120.450 400, 121 400 C 121.550 400, 122 401.098, 122 402.441 C 122 403.784, 122.489 405.184, 123.087 405.554 C 123.685 405.923, 123.956 407.058, 123.690 408.076 C 123.424 409.094, 123.855 410.465, 124.649 411.123 C 125.442 411.782, 125.857 412.930, 125.571 413.675 C 125.285 414.421, 125.940 416.612, 127.026 418.546 C 128.112 420.479, 129 422.947, 129 424.030 C 129 425.114, 129.450 426, 130 426 C 130.550 426, 131 426.900, 131 428 C 131 429.100, 131.450 430, 132 430 C 132.550 430, 133 430.863, 133 431.917 C 133 432.971, 133.338 433.983, 133.750 434.167 C 134.972 434.710, 139.044 443.120, 138.506 443.990 C 138.234 444.430, 138.712 445.059, 139.569 445.388 C 140.426 445.717, 140.884 446.379, 140.587 446.859 C 140.290 447.340, 140.937 448.538, 142.024 449.521 C 143.111 450.505, 144 451.845, 144 452.500 C 144 453.155, 144.900 454.505, 146 455.500 C 147.100 456.495, 148 457.863, 148 458.539 C 148 459.214, 149.800 461.393, 152 463.381 C 154.200 465.369, 156 467.614, 156 468.370 C 156 469.126, 158.025 471.612, 160.500 473.893 C 162.975 476.175, 165 478.537, 165 479.143 C 165 480.632, 192.070 507.572, 193.221 507.228 C 193.721 507.079, 199.128 512.141, 205.235 518.478 C 211.342 524.815, 216.876 530, 217.533 530 C 219.287 530, 245.048 556.114, 244.373 557.206 C 244.057 557.717, 244.744 558.382, 245.899 558.684 C 247.055 558.986, 248 559.856, 248 560.617 C 248 561.377, 248.900 562, 250 562 C 251.333 562, 252 562.667, 252 564 C 252 565.333, 252.667 566, 254 566 C 255.982 566, 256 565.333, 256 491.500 C 256 442.500, 255.658 417, 255 417 C 254.450 417, 254 415.452, 254 413.559 C 254 411.666, 253.550 409.840, 253 409.500 C 252.450 409.160, 252 407.784, 252 406.441 C 252 405.098, 251.550 404, 251 404 C 250.450 404, 250 403.100, 250 402 C 250 400.900, 249.550 400, 249 400 C 248.450 400, 248 398.688, 248 397.083 C 248 395.479, 247.662 394.017, 247.250 393.833 C 246.486 393.494, 244.610 389.827, 238.991 377.688 C 237.257 373.941, 235.200 370.630, 234.419 370.331 C 233.639 370.031, 233 368.934, 233 367.893 C 233 366.852, 232.550 366, 232 366 C 231.450 366, 231 365.165, 231 364.145 C 231 363.125, 229.603 361.133, 227.896 359.718 C 226.188 358.304, 225.060 356.712, 225.389 356.180 C 225.717 355.649, 224.643 354.153, 223.002 352.857 C 221.361 351.561, 220.010 349.825, 220 349 C 219.990 348.175, 218.636 346.437, 216.991 345.137 C 215.346 343.838, 214 342.235, 214 341.575 C 214 340.914, 212.666 339.096, 211.036 337.534 C 209.405 335.972, 208.314 334.300, 208.612 333.819 C 208.909 333.338, 206.912 330.820, 204.175 328.222 C 201.437 325.625, 199.041 322.964, 198.849 322.308 C 198.298 320.428, 169.911 292, 168.584 292 C 167.928 292, 165.866 290.425, 164 288.500 C 162.134 286.575, 160.105 285, 159.491 285 C 158.877 285, 157.081 283.650, 155.500 282 C 153.919 280.350, 152.039 279, 151.321 279 C 150.604 279, 149.455 278.100, 148.768 277 C 148.081 275.900, 146.892 275, 146.126 275 C 145.360 275, 143.673 273.767, 142.378 272.260 C 141.083 270.753, 139.456 269.467, 138.762 269.404 C 136.258 269.173, 133 267.748, 133 266.883 C 133 264.847, 129.401 266.228, 128.250 268.707 M 418 365.795 C 418 366.814, 406.976 378.516, 392.500 392.863 C 378.475 406.764, 367 418.675, 367 419.334 C 367 420.841, 325.726 462, 324.215 462 C 323.602 462, 313.857 471.337, 302.559 482.750 L 282.017 503.500 282.009 533.550 C 282.002 555.579, 281.680 563.920, 280.800 564.800 C 279.867 565.733, 280.035 566, 281.558 566 C 282.779 566, 291.991 557.520, 306 543.500 C 318.366 531.125, 328.937 520.999, 329.492 520.997 C 330.780 520.993, 379 472.600, 379 471.312 C 379 470.782, 380.125 469.292, 381.500 468 C 382.875 466.708, 384 465.139, 384 464.513 C 384 463.887, 385.350 462.081, 387 460.500 C 388.650 458.919, 390 457.105, 390 456.468 C 390 455.831, 390.900 454.495, 392 453.500 C 393.100 452.505, 394 451.085, 394 450.345 C 394 449.605, 394.498 449, 395.107 449 C 395.716 449, 395.961 448.342, 395.652 447.537 C 395.325 446.683, 396.148 445.242, 397.629 444.077 C 399.025 442.979, 399.878 441.612, 399.525 441.040 C 399.171 440.468, 399.359 440, 399.941 440 C 400.523 440, 401 439.100, 401 438 C 401 436.900, 401.450 436, 402 436 C 402.550 436, 403 435.100, 403 434 C 403 432.900, 403.450 432, 404 432 C 404.550 432, 405 430.902, 405 429.559 C 405 428.216, 405.450 426.840, 406 426.500 C 406.550 426.160, 407 425.022, 407 423.971 C 407 422.921, 407.900 420.458, 409 418.500 C 410.100 416.542, 411 414.368, 411 413.669 C 411 411.879, 413.354 407.017, 414.225 407.008 C 414.624 407.004, 414.691 405.705, 414.374 404.121 C 414.047 402.484, 414.273 400.949, 414.899 400.562 C 415.505 400.188, 416 398.360, 416 396.500 C 416 394.640, 416.450 392.840, 417 392.500 C 417.550 392.160, 418 389.434, 418 386.441 C 418 383.448, 418.450 381, 419 381 C 419.563 381, 420 378.186, 420 374.559 C 420 371.016, 420.450 367.840, 421 367.500 C 422.760 366.413, 422.070 364, 420 364 C 418.743 364, 418 364.667, 418 365.795" stroke="none" fill="#93d594" fill-rule="evenodd" data-index="0" style="opacity: 1;"></path></svg>